<svg width="34" height="34" viewBox="0 0 34 34" fill="none" xmlns="http://www.w3.org/2000/svg">
<circle opacity="0.1" cx="17" cy="17" r="17" fill="#045599"/>
<path opacity="0.7" d="M13.5593 10.9602L16.3546 8.16503C16.5377 7.98212 16.7769 7.89133 17.0163 7.89133H17.0232H17.03C17.2694 7.89133 17.509 7.98212 17.6921 8.16503L20.487 10.9602C20.8528 11.3257 20.8528 11.9185 20.487 12.2839C20.3044 12.4668 20.0645 12.5582 19.8252 12.5582C19.5854 12.5582 19.346 12.4668 19.1634 12.2839L17.9279 11.0487V13.8923V17.6018V17.9445C17.9279 18.4617 17.5086 18.8807 16.9915 18.8807C16.4743 18.8807 16.0556 18.4617 16.0556 17.9445V17.6018V13.8923V11.1121L14.8834 12.2841C14.7004 12.467 14.461 12.5584 14.2216 12.5584C13.9818 12.5584 13.7425 12.467 13.5595 12.2841C13.1936 11.9185 13.1936 11.3255 13.5593 10.9602ZM24.1907 22.2288C24.1907 23.4924 22.9514 24.4824 21.3693 24.4824H12.631C11.0492 24.4824 9.80981 23.4924 9.80981 22.2288V16.1458C9.80981 14.882 11.0489 13.892 12.631 13.892H13.8109C13.945 13.9159 14.0823 13.9299 14.2215 13.9299C14.3598 13.9299 14.496 13.9158 14.6296 13.892H14.6835V15.721H12.631C11.9906 15.721 11.6388 16.0402 11.6388 16.1458V22.2288C11.6388 22.3344 11.9907 22.6533 12.631 22.6533H21.3696C22.01 22.6533 22.3618 22.3342 22.3618 22.2288V16.1458C22.3618 16.0402 22.0099 15.721 21.3696 15.721H19.2994V13.892H19.4261C19.5566 13.9146 19.6895 13.9299 19.825 13.9299C19.9642 13.9299 20.1012 13.916 20.2356 13.892H21.3696C22.9516 13.892 24.1907 14.8821 24.1907 16.1458V22.2288Z" fill="#045599"/>
</svg>
