<svg width="18" height="18" viewBox="0 0 18 18" fill="none" xmlns="http://www.w3.org/2000/svg">
<path fill-rule="evenodd" clip-rule="evenodd" d="M2 5C2 4.44772 2.44772 4 3 4H5C5.55228 4 6 4.44772 6 5V7C6 7.55228 5.55228 8 5 8H3C2.44772 8 2 7.55228 2 7V5ZM7 5C7 4.44772 7.44772 4 8 4H10C10.5523 4 11 4.44772 11 5V7C11 7.55228 10.5523 8 10 8H8C7.44772 8 7 7.55228 7 7V5ZM13 4C12.4477 4 12 4.44772 12 5V7C12 7.55228 12.4477 8 13 8H15C15.5523 8 16 7.55228 16 7V5C16 4.44772 15.5523 4 15 4H13ZM13 10C12.4477 10 12 10.4477 12 11V13C12 13.5523 12.4477 14 13 14H15C15.5523 14 16 13.5523 16 13V11C16 10.4477 15.5523 10 15 10H13ZM8 10C7.44772 10 7 10.4477 7 11V13C7 13.5523 7.44772 14 8 14H10C10.5523 14 11 13.5523 11 13V11C11 10.4477 10.5523 10 10 10H8ZM3 10C2.44772 10 2 10.4477 2 11V13C2 13.5523 2.44772 14 3 14H5C5.55228 14 6 13.5523 6 13V11C6 10.4477 5.55228 10 5 10H3Z" fill="#F2994A"/>
</svg>
