<svg width="18" height="18" viewBox="0 0 18 18" fill="none" xmlns="http://www.w3.org/2000/svg">
<path fill-rule="evenodd" clip-rule="evenodd" d="M4.2 4C3.53726 4 3 4.53726 3 5.2V5.3C3 5.96274 3.53726 6.5 4.2 6.5C4.86274 6.5 5.4 5.96274 5.4 5.3V5.2C5.4 4.53726 4.86274 4 4.2 4ZM7.85 4C7.15964 4 6.6 4.55964 6.6 5.25C6.6 5.94036 7.15964 6.5 7.85 6.5H13.75C14.4404 6.5 15 5.94036 15 5.25C15 4.55964 14.4404 4 13.75 4H7.85ZM6.6 9C6.6 8.30964 7.15964 7.75 7.85 7.75H13.75C14.4404 7.75 15 8.30964 15 9C15 9.69036 14.4404 10.25 13.75 10.25H7.85C7.15964 10.25 6.6 9.69036 6.6 9ZM4.2 7.75C3.53726 7.75 3 8.28726 3 8.95V9.05C3 9.71274 3.53726 10.25 4.2 10.25C4.86274 10.25 5.4 9.71274 5.4 9.05V8.95C5.4 8.28726 4.86274 7.75 4.2 7.75ZM6.6 12.75C6.6 12.0596 7.15964 11.5 7.85 11.5H13.75C14.4404 11.5 15 12.0596 15 12.75C15 13.4404 14.4404 14 13.75 14H7.85C7.15964 14 6.6 13.4404 6.6 12.75ZM4.2 11.5C3.53726 11.5 3 12.0373 3 12.7V12.8C3 13.4627 3.53726 14 4.2 14C4.86274 14 5.4 13.4627 5.4 12.8V12.7C5.4 12.0373 4.86274 11.5 4.2 11.5Z" fill="#F48020"/>
</svg>
